#Comment line ignore any data following # character
#Hierarchical Translation and Rotation (.htr) file
[Header]		#Header keywords are followed by a single value
FileType htr		#Single word string
DataType HTRS		#Translation followed by rotation and scale data
FileVersion 1		#integer
NumSegments 15		#integer
NumFrames 10		#integer
DataFrameRate 60		#integer, data frame rate in this file
EulerRotationOrder ZYX
CalibrationUnits mm
RotationUnits Degrees
GlobalAxisofGravity Y
BoneLengthAxis Y
ScaleFactor 1.000000
[SegmentNames&Hierarchy]
#CHILD	PARENT
1cou	1buste
1buste	1bassin
1brasG	1buste
1brasD	1buste
1avbrasG	1brasG
1avbrasD	1brasD
1mainG	1avbrasG
1mainD	1avbrasD
1bassin	GLOBAL
1cuisseG	1bassin
1cuisseD	1bassin
1moletG	1cuisseG
1moletD	1cuisseD
1piedG	1moletG
1piedD	1moletD
[BasePosition]
#SegmentName Tx, Ty, Tz, Rx, Ry, Rz, BoneLength
1cou	0.000002	394.639771	0.000003	47.447697	-6.500580	2.097482	232.574402
1buste	0.331046	98.159424	9.920088	5.813737	-6.959647	-0.900074	394.639771
1brasG	222.293304	333.760773	-3.143221	-5.521868	-4.449825	-174.025208	338.016541
1brasD	-186.675308	347.235016	-30.968008	-5.508482	16.777920	169.824814	318.101379
1avbrasG	0.000004	338.016571	-0.000002	34.403133	17.432653	23.106703	253.821075
1avbrasD	-0.000007	318.101410	-0.000013	32.381824	-10.529597	-11.344105	276.946075
1mainG	0.000006	253.821091	-0.000001	-3.773718	-0.485368	-1.748444	73.639816
1mainD	-0.000031	276.946106	-0.000010	-3.909555	0.199285	0.225476	80.942635
1bassin	396.031860	1037.839600	833.112305	178.297836	19.764000	-179.799622	97.859962
1cuisseG	108.625954	-0.934603	-40.474510	172.403458	-4.353497	-0.165467	517.714233
1cuisseD	-106.972656	-1.326527	-48.733826	172.076172	-12.757409	2.045154	501.698334
1moletG	0.000006	517.714233	-0.000009	157.872192	5.331374	176.676331	488.075745
1moletD	-0.000005	501.698303	0.000003	156.316269	3.295414	-177.725830	511.880615
1piedG	0.000002	488.075745	-0.000006	99.880898	-0.000004	0.000000	242.425140
1piedD	-0.000009	511.880646	-0.000013	102.622849	0.000000	0.000000	237.138092
#Beginning of Data. Separated by tabs
[1cou]
#Fr	Tx	Ty	Tz	Rx	Ry	Rz	SF
137	0.000001	-42.866364	0.000002	-5.264595	-19.762602	13.338074	0.965565
138	-0.000007	-42.815063	-0.000016	-5.594736	-19.938429	13.351980	0.968179
139	-0.000005	-42.247955	-0.000004	-5.724717	-19.948282	12.929546	0.966013
140	-0.000002	-41.350616	0.000018	-5.490657	-20.396751	12.496094	0.965149
141	-0.000008	-40.532318	0.000015	-4.958908	-20.675938	11.956231	0.963857
142	0.000002	-39.731750	0.000001	-4.681237	-21.068710	11.743319	0.961287
143	-0.000009	-39.528503	-0.000015	-4.515398	-21.156948	11.641991	0.965496
144	-0.000012	-39.290466	0.000013	-4.366907	-21.065905	11.437145	0.965247
145	-0.000005	-38.829895	0.000006	-4.288854	-21.232264	11.505043	0.964332
146	0.000004	-38.439331	-0.000009	-4.415723	-21.435913	11.724059	0.962257
[1buste]
#Fr	Tx	Ty	Tz	Rx	Ry	Rz	SF
137	0.732327	-10.852531	0.587417	1.024653	-3.747373	-0.697262	0.891379
138	0.923280	-10.860619	0.739942	1.108163	-3.766213	-0.838622	0.891508
139	0.906826	-10.731094	0.850461	1.170990	-4.156822	-0.846267	0.892945
140	0.944105	-10.508850	0.876915	1.168084	-4.433372	-0.873580	0.895219
141	1.146622	-10.308784	0.900410	1.151284	-4.295274	-0.997662	0.897293
142	1.156786	-10.098358	0.827758	1.087905	-4.334860	-0.990288	0.899321
143	1.475943	-10.079872	1.044519	1.199352	-4.281125	-1.218396	0.899836
144	1.732943	-10.040710	1.165871	1.253042	-4.136063	-1.392199	0.900440
145	1.876215	-9.941063	1.269102	1.299877	-4.324135	-1.496873	0.901607
146	2.217260	-9.892715	1.587051	1.471171	-4.348991	-1.751242	0.902596
[1brasG]
#Fr	Tx	Ty	Tz	Rx	Ry	Rz	SF
137	-56.122452	-22.009430	30.169048	76.164925	27.697584	65.733185	0.911977
138	-56.219131	-21.832916	30.062664	76.607605	27.648357	65.718483	0.911907
139	-55.846802	-21.832764	30.048744	77.236900	27.429436	65.920975	0.912494
140	-55.379776	-22.742188	30.167034	77.885445	27.213783	66.098610	0.913206
141	-55.832291	-23.364777	30.025389	78.275002	27.018694	65.961449	0.914255
142	-56.140762	-23.398834	29.989597	78.818962	26.915817	65.853027	0.913907
143	-56.571625	-23.151062	30.272879	79.530693	26.949701	66.062897	0.913588
144	-56.776489	-22.553619	30.766077	80.346069	26.980001	66.395081	0.912312
145	-56.848648	-22.204010	31.174196	81.209518	26.977015	66.796204	0.911503
146	-56.874268	-21.469513	31.468145	82.002922	26.902590	67.121506	0.911472
[1brasD]
#Fr	Tx	Ty	Tz	Rx	Ry	Rz	SF
137	-0.093216	-77.526276	-20.803778	-1.312355	-32.155876	14.546361	0.886587
138	-0.108658	-77.677094	-21.227911	-0.931736	-32.113941	14.153908	0.885533
139	-0.053665	-77.055450	-21.071482	-0.564377	-32.044136	13.779865	0.886818
140	0.445557	-75.882141	-20.480749	-0.355555	-31.862057	13.369134	0.889582
141	1.135925	-75.049835	-19.237692	-0.278723	-31.544622	13.063904	0.891465
142	1.533737	-74.069183	-17.641260	-0.253814	-31.213469	12.708859	0.893150
143	1.764160	-73.766785	-16.846121	-0.162869	-30.741518	12.365503	0.894131
144	2.043610	-73.382874	-15.782316	-0.147112	-30.223934	12.041837	0.894975
145	1.983719	-72.815369	-15.708517	0.115062	-29.747536	11.742020	0.895992
146	1.922424	-72.781250	-17.209700	0.823455	-29.350719	11.516238	0.895987
[1avbrasG]
#Fr	Tx	Ty	Tz	Rx	Ry	Rz	SF
137	-0.000004	-29.753418	-0.000000	37.084225	-6.246799	31.586811	1.144973
138	0.000012	-29.777100	0.000002	36.866753	-5.563664	32.460915	1.146634
139	0.000003	-29.578308	-0.000002	36.650890	-4.931598	33.133045	1.146580
140	-0.000001	-29.337708	-0.000002	36.411030	-4.408110	33.474525	1.145610
141	-0.000003	-28.983307	0.000004	36.306278	-4.081697	33.588226	1.146903
142	-0.000008	-29.100830	-0.000026	36.026299	-3.576259	33.736767	1.146793
143	0.000007	-29.208557	-0.000005	35.612843	-2.678724	34.283821	1.146439
144	0.000020	-29.640045	-0.000012	35.194885	-1.606371	34.845543	1.147511
145	-0.000000	-29.913483	-0.000000	34.773403	-0.397980	35.359413	1.148205
146	0.000011	-29.924103	0.000000	34.619858	0.127197	35.529293	1.148874
[1avbrasD]
#Fr	Tx	Ty	Tz	Rx	Ry	Rz	SF
137	0.000005	-36.076782	0.000002	75.356224	-13.576875	-98.730988	0.854661
138	0.000006	-36.412018	0.000027	74.917870	-13.325562	-97.760384	0.853923
139	0.000017	-36.003296	0.000021	74.477585	-13.036216	-96.873253	0.852855
140	0.000004	-35.124237	-0.000010	74.028687	-12.705033	-95.988754	0.851506
141	0.000005	-34.525269	0.000004	73.545845	-12.252886	-95.075333	0.849530
142	-0.000000	-33.989288	0.000034	73.078285	-11.694827	-94.183289	0.847405
143	0.000008	-33.677216	0.000010	72.571098	-11.176105	-92.977745	0.844920
144	0.000004	-33.408478	0.000016	72.059563	-10.577703	-91.806297	0.842454
145	0.000001	-33.084961	0.000003	71.455978	-10.157300	-90.217560	0.839671
146	0.000006	-33.086761	-0.000002	70.921494	-10.086532	-88.837326	0.836991
[1mainG]
#Fr	Tx	Ty	Tz	Rx	Ry	Rz	SF
137	0.000001	36.797134	0.000008	2.406460	0.361984	1.909823	1.107331
138	-0.000005	37.218765	0.000005	2.399934	0.361778	1.906720	1.109109
139	-0.000002	37.205063	0.000006	2.392449	0.362152	1.901913	1.109104
140	-0.000028	36.958847	-0.000015	2.379611	0.362743	1.890514	1.108178
141	-0.000011	37.286972	0.000001	2.371470	0.363145	1.874362	1.109579
142	-0.000007	37.259140	0.000005	2.351120	0.364086	1.850368	1.109605
143	-0.000012	37.169296	0.000011	2.322244	0.365815	1.818722	1.109446
144	0.000016	37.441422	0.000008	2.295503	0.368935	1.777817	1.110769
145	0.000006	37.617416	-0.000019	2.270392	0.372726	1.729989	1.111699
146	0.000009	37.787216	0.000010	2.263891	0.374038	1.709806	1.112456
[1mainD]
#Fr	Tx	Ty	Tz	Rx	Ry	Rz	SF
137	0.000036	-40.251205	0.000012	2.563236	-0.263213	-0.891023	0.806473
138	0.000069	-40.455643	0.000002	2.555797	-0.276881	-0.915012	0.805788
139	0.000030	-40.751373	0.000002	2.544811	-0.292259	-0.944103	0.804788
140	0.000032	-41.124969	0.000006	2.532998	-0.308304	-0.975523	0.803508
141	0.000014	-41.672195	-0.000002	2.519521	-0.328524	-1.014535	0.801606
142	0.000009	-42.260574	0.000009	2.507246	-0.355653	-1.063138	0.799571
143	0.000040	-42.948730	0.000014	2.499766	-0.383480	-1.109298	0.797142
144	0.000040	-43.631897	0.000031	2.491250	-0.414361	-1.161584	0.794757
145	0.000040	-44.402374	0.000008	2.484979	-0.435037	-1.197964	0.791997
146	0.000049	-45.144653	-0.000001	2.475141	-0.433495	-1.205471	0.789281
[1bassin]
#Fr	Tx	Ty	Tz	Rx	Ry	Rz	SF
137	-909.191467	-835.042419	-116.830261	-109.351189	-10.700765	103.040230	0.918445
138	-907.563782	-834.113770	-118.435547	-109.157372	-11.130252	103.446556	0.917882
139	-905.914490	-832.955200	-120.407837	-108.879242	-11.710881	103.568245	0.919552
140	-903.947876	-831.885864	-122.038330	-108.704544	-12.205635	103.736420	0.921092
141	-902.395874	-831.078979	-124.047791	-108.586571	-12.596575	104.214668	0.920108
142	-900.660889	-830.134766	-126.312012	-108.335037	-13.135000	104.511894	0.920683
143	-899.226440	-829.304810	-128.350342	-108.236038	-13.529072	104.783791	0.920024
144	-897.747620	-828.548218	-130.578003	-108.071312	-13.978191	105.143990	0.919632
145	-896.390381	-827.434448	-132.903809	-107.793083	-14.526781	105.196655	0.921587
146	-895.712585	-826.583740	-135.555359	-107.607300	-14.988434	105.425293	0.920514
[1cuisseG]
#Fr	Tx	Ty	Tz	Rx	Ry	Rz	SF
137	-7.319801	-0.267228	-11.193169	-18.109661	-16.307659	-11.884103	1.020552
138	-7.375328	-0.242285	-11.386150	-18.324835	-16.318085	-11.586644	1.021527
139	-7.221169	-0.258429	-11.334343	-18.678440	-16.467587	-11.227253	1.021765
140	-7.057037	-0.245962	-11.217953	-18.813770	-16.386765	-10.993026	1.021797
141	-7.259590	-0.208712	-11.655418	-18.931555	-16.729254	-10.791514	1.021967
142	-7.262657	-0.201638	-11.872707	-19.219753	-16.736225	-10.638941	1.020634
143	-7.394485	-0.151660	-12.079601	-19.240280	-16.882624	-10.459383	1.021231
144	-7.461372	-0.105031	-12.295971	-19.309147	-17.162271	-10.339490	1.020522
145	-7.221832	-0.075131	-12.261238	-19.544548	-17.090084	-10.125656	1.019464
146	-7.449631	-0.043522	-12.713356	-19.782188	-17.407835	-9.997848	1.020125
[1cuisseD]
#Fr	Tx	Ty	Tz	Rx	Ry	Rz	SF
137	2.626503	-0.037861	12.277412	-46.627964	-18.550770	-14.815424	1.092663
138	2.621910	-0.106074	12.388077	-47.023994	-18.840225	-15.081164	1.092249
139	2.480278	-0.110498	12.377029	-47.574955	-18.908388	-15.262603	1.091756
140	2.389137	-0.129400	12.129452	-47.990276	-18.855566	-15.550927	1.090969
141	2.408623	-0.178584	12.610489	-48.360989	-19.153282	-15.852601	1.090377
142	2.323929	-0.167813	12.831707	-48.796978	-19.188484	-16.251829	1.089044
143	2.344147	-0.272001	13.188541	-49.041973	-19.140612	-16.651377	1.087163
144	2.328827	-0.353274	13.387749	-49.328773	-19.236286	-17.098383	1.085389
145	2.133583	-0.407507	13.203732	-49.704643	-19.067369	-17.451477	1.083167
146	2.136703	-0.518647	13.881405	-49.964142	-19.102049	-17.814274	1.080831
[1moletG]
#Fr	Tx	Ty	Tz	Rx	Ry	Rz	SF
137	-0.000003	10.639954	0.000000	-13.908165	-17.187685	1.499738	0.966606
138	0.000008	11.145081	0.000018	-13.837456	-17.194731	1.419677	0.966319
139	0.000005	11.268188	0.000024	-13.789044	-16.912312	1.423787	0.965224
140	0.000001	11.284668	0.000015	-13.793447	-16.891010	1.214890	0.964231
141	-0.000023	11.372742	0.000049	-13.935190	-16.495781	1.251749	0.962759
142	-0.000009	10.682251	0.000019	-13.933507	-16.546576	1.459067	0.963637
143	-0.000006	10.991760	0.000039	-13.882948	-16.305866	1.435249	0.963876
144	-0.000017	10.624573	0.000016	-13.650108	-16.196182	1.350076	0.964500
145	-0.000006	10.076965	0.000016	-13.618014	-16.099966	1.591939	0.966323
146	-0.000007	10.418823	0.000017	-13.756618	-15.697066	1.713850	0.965185
[1moletD]
#Fr	Tx	Ty	Tz	Rx	Ry	Rz	SF
137	0.000012	46.489014	0.000016	-72.446983	-3.536906	5.220173	0.867635
138	0.000010	46.281128	0.000015	-72.693474	-3.048566	4.909273	0.867940
139	0.000009	46.033997	0.000035	-72.975281	-2.702112	4.914386	0.869516
140	0.000016	45.638794	-0.000043	-73.291183	-2.703228	5.024896	0.872023
141	-0.000003	45.342041	0.000018	-73.631310	-2.662162	5.425520	0.874652
142	0.000000	44.673035	0.000016	-73.854279	-2.597123	5.862345	0.875709
143	0.000006	43.729675	-0.000017	-74.024994	-2.545814	5.911692	0.875979
144	0.000008	42.839661	0.000030	-74.153419	-2.377346	5.811184	0.875649
145	0.000004	41.724854	0.000005	-74.144333	-2.318936	5.977527	0.874170
146	0.000000	40.552856	-0.000037	-74.135040	-2.283232	6.079760	0.872703
[1piedG]
#Fr	Tx	Ty	Tz	Rx	Ry	Rz	SF
137	0.000008	-16.299011	0.000033	4.795115	-0.000001	-0.000007	1.022877
138	0.000003	-16.438995	0.000012	4.660191	-0.000001	-0.000004	1.024152
139	0.000004	-16.973328	0.000027	4.481935	-0.000000	-0.000003	1.018841
140	-0.000001	-17.458008	-0.000016	4.201930	-0.000001	-0.000004	1.020523
141	0.000006	-18.176483	0.000026	3.872720	0.000000	-0.000003	1.026751
142	0.000009	-17.747803	0.000050	3.646952	-0.000001	-0.000003	1.026017
143	-0.000001	-17.631256	-0.000028	3.619977	-0.000002	-0.000004	1.027685
144	0.000003	-17.326599	0.000068	3.524322	-0.000001	-0.000002	1.026006
145	-0.000007	-16.437103	0.000017	3.511434	0.000000	-0.000003	1.028254
146	-0.000011	-16.992157	-0.000007	3.230455	-0.000003	-0.000002	1.027210
[1piedD]
#Fr	Tx	Ty	Tz	Rx	Ry	Rz	SF
137	0.000024	-67.755249	0.000020	6.158451	0.000000	0.000000	1.047675
138	0.000003	-67.598907	0.000046	5.981995	0.000000	0.000000	1.046291
139	0.000026	-66.792358	0.000020	6.105545	-0.000000	-0.000000	1.046448
140	-0.000017	-65.508972	0.000039	6.064431	-0.000000	0.000001	1.043835
141	0.000021	-64.163269	0.000032	6.057245	0.000000	0.000001	1.042085
142	0.000010	-63.622253	0.000020	6.554243	0.000000	-0.000000	1.049506
143	0.000003	-63.483704	0.000025	6.614497	-0.000000	-0.000001	1.053259
144	0.000010	-63.652954	0.000024	6.458707	0.000000	-0.000001	1.051992
145	0.000010	-64.410095	0.000044	6.492226	0.000000	-0.000000	1.053670
146	-0.000012	-65.160858	0.000007	6.389635	0.000000	-0.000000	1.053808
[EndOfFile]
